<?xml version="1.0" encoding="iso-8859-1"?>
<!-- Generator: Adobe Illustrator 18.0.0, SVG Export Plug-In . SVG Version: 6.00 Build 0)  -->
<!DOCTYPE svg PUBLIC "-//W3C//DTD SVG 1.1//EN" "http://www.w3.org/Graphics/SVG/1.1/DTD/svg11.dtd">
<svg xmlns="http://www.w3.org/2000/svg" xmlns:xlink="http://www.w3.org/1999/xlink" version="1.1" id="Capa_1" x="0px" y="0px" viewBox="0 0 168.112 168.112" style="enable-background:new 0 0 168.112 168.112;" xml:space="preserve" width="512px" height="512px">
<g>
	<path d="M84.056,50.506c-18.499,0-33.55,15.051-33.55,33.55s15.051,33.55,33.55,33.55   c18.5,0,33.551-15.051,33.551-33.55S102.556,50.506,84.056,50.506z M84.056,102.606c-10.229,0-18.55-8.322-18.55-18.55   s8.321-18.55,18.55-18.55s18.551,8.322,18.551,18.55S94.284,102.606,84.056,102.606z" fill="#545454"/>
	<path d="M156.545,74.865l-0.536-0.239c-1.954-0.871-2.464-2.595-2.593-3.295   c-0.129-0.701-0.264-2.494,1.255-4.003l0.415-0.413c5.713-5.674,7.365-13.801,4.312-21.207   c-3.041-7.377-10.059-12.145-17.878-12.145c-1.396,0-2.816,0.151-4.218,0.449l-0.578,0.123c-1.656,0.35-3.289-0.228-4.369-1.498   c-0.499-0.585-1.291-1.833-1.002-3.621l0.093-0.579c0.934-5.768-0.587-11.334-4.281-15.673c-3.721-4.371-9.363-6.98-15.095-6.98   c-5.485,0-10.583,2.305-14.355,6.491l-0.392,0.436c-1.108,1.23-2.417,1.488-3.319,1.488c-0.653,0-2.877-0.178-4.037-2.474   l-0.264-0.521c-3.39-6.708-9.857-10.712-17.301-10.712c-10.226,0-18.421,7.344-19.486,17.451l-0.063,0.596   c-0.276,2.622-2.516,4.036-4.481,4.036c-0.7,0-1.388-0.171-2.042-0.507l-0.525-0.27c-2.86-1.469-5.881-2.214-8.975-2.214   c-6.89,0-13.361,3.793-16.889,9.901c-3.484,6.033-3.459,13.284,0.067,19.397l0.295,0.511c1.068,1.853,0.468,3.547,0.16,4.19   s-1.252,2.172-3.368,2.5l-0.579,0.09C7.897,57.509,1.33,64.215,0.177,72.86c-1.154,8.645,3.423,16.837,11.39,20.388l0.536,0.239   c1.954,0.871,2.464,2.595,2.593,3.295c0.129,0.701,0.264,2.494-1.255,4.003l-0.416,0.413C7.312,106.873,5.66,115,8.715,122.407   c3.042,7.377,10.06,12.143,17.878,12.142c1.397,0,2.817-0.151,4.22-0.449l0.575-0.122c1.649-0.352,3.289,0.227,4.369,1.497   c0.499,0.585,1.291,1.834,1.002,3.621l-0.093,0.579c-0.934,5.768,0.588,11.334,4.282,15.674c3.721,4.37,9.363,6.979,15.095,6.979   c5.486,0,10.583-2.305,14.354-6.491l0.392-0.436c1.108-1.23,2.417-1.488,3.319-1.488c0.653,0,2.877,0.178,4.036,2.473l0.265,0.521   c3.39,6.708,9.857,10.712,17.302,10.712c10.225-0.001,18.42-7.345,19.487-17.463l0.062-0.583c0.276-2.622,2.516-4.036,4.481-4.036   c0.7,0,1.388,0.171,2.042,0.507l0.525,0.27c2.86,1.469,5.881,2.214,8.975,2.214c6.89,0,13.361-3.793,16.889-9.901   c3.484-6.033,3.459-13.284-0.067-19.397l-0.295-0.511c-1.068-1.853-0.468-3.547-0.16-4.19s1.252-2.172,3.367-2.5l0.58-0.09   c8.619-1.336,15.185-8.042,16.339-16.687C169.089,86.608,164.512,78.415,156.545,74.865z M153.067,93.268   c-0.134,1.002-0.769,3.383-3.77,3.849l-0.581,0.09c-6.358,0.986-11.813,5.039-14.595,10.841c-2.78,5.803-2.521,12.594,0.694,18.167   l0.295,0.511c0.866,1.502,0.891,2.983,0.071,4.4c-0.843,1.46-2.374,2.403-3.899,2.403c-0.688,0-1.401-0.188-2.119-0.556   l-0.525-0.27c-2.797-1.437-5.791-2.166-8.897-2.166c-10.01,0-18.35,7.508-19.399,17.465l-0.062,0.583   c-0.336,3.185-3.031,4.034-4.57,4.035c-1.215,0-2.879-0.43-3.915-2.481l-0.265-0.521c-3.337-6.603-10.013-10.704-17.422-10.704   c-5.499,0-10.771,2.35-14.464,6.449l-0.393,0.436c-0.915,1.015-1.994,1.53-3.21,1.53c-1.371,0-2.778-0.652-3.673-1.703   c-0.82-0.964-1.122-2.16-0.896-3.557l0.093-0.578c0.915-5.652-0.685-11.388-4.387-15.738c-3.721-4.372-9.122-6.879-14.817-6.879   c-1.363,0-2.739,0.145-4.088,0.432l-0.575,0.122c-0.382,0.081-0.755,0.122-1.108,0.122c-2.086,0-3.438-1.478-4.009-2.86   c-0.42-1.018-0.846-3.001,1.016-4.852l0.416-0.413c4.564-4.535,6.597-11.021,5.436-17.35c-1.162-6.329-5.364-11.67-11.242-14.29   l-0.536-0.239c-2.771-1.235-2.76-3.699-2.626-4.701c0.134-1.002,0.769-3.384,3.771-3.849l0.579-0.09   c6.358-0.986,11.813-5.039,14.595-10.841c2.78-5.803,2.521-12.594-0.694-18.167L33,41.388c-0.866-1.502-0.891-2.983-0.071-4.4   c0.843-1.46,2.374-2.403,3.899-2.403c0.688,0,1.401,0.188,2.119,0.556l0.525,0.27c2.797,1.437,5.791,2.166,8.897,2.166   c10.01,0,18.35-7.508,19.398-17.453l0.063-0.596c0.335-3.184,3.03-4.034,4.569-4.034c1.214,0,2.879,0.43,3.916,2.481l0.264,0.521   c3.337,6.603,10.013,10.704,17.422,10.704c5.499,0,10.771-2.35,14.464-6.449l0.393-0.436c0.915-1.016,1.995-1.531,3.21-1.531   c1.371,0,2.778,0.652,3.673,1.703c0.82,0.964,1.122,2.16,0.896,3.557l-0.093,0.578c-0.915,5.651,0.685,11.388,4.387,15.737   c3.722,4.372,9.122,6.879,14.817,6.879c1.363,0,2.739-0.145,4.086-0.431l0.578-0.123c0.383-0.081,0.755-0.122,1.106-0.122   c2.087,0,3.44,1.478,4.011,2.861c0.419,1.018,0.845,3-1.017,4.851l-0.416,0.413c-4.564,4.535-6.597,11.021-5.436,17.35   c1.162,6.329,5.364,11.67,11.242,14.29l0.536,0.239C153.213,89.802,153.201,92.266,153.067,93.268z" fill="#545454"/>
</g>
<g>
</g>
<g>
</g>
<g>
</g>
<g>
</g>
<g>
</g>
<g>
</g>
<g>
</g>
<g>
</g>
<g>
</g>
<g>
</g>
<g>
</g>
<g>
</g>
<g>
</g>
<g>
</g>
<g>
</g>
</svg>
