<?xml version="1.0" encoding="utf-8"?>
<!-- Generator: Adobe Illustrator 16.0.0, SVG Export Plug-In . SVG Version: 6.00 Build 0)  -->
<!DOCTYPE svg PUBLIC "-//W3C//DTD SVG 1.1//EN" "http://www.w3.org/Graphics/SVG/1.1/DTD/svg11.dtd">
<svg version="1.1" id="Capa_1" xmlns="http://www.w3.org/2000/svg" xmlns:xlink="http://www.w3.org/1999/xlink" x="0px" y="0px"
	 width="1000px" height="1000px" viewBox="0 0 1000 1000" enable-background="new 0 0 1000 1000" xml:space="preserve">
<g>
	<g>
		<path fill="none" stroke="#3B5998" stroke-width="20" stroke-miterlimit="10" d="M254.634,979.684h490.729
			c79.657,0,144.197-62.795,144.197-142.451V518.607c0-64.538-40.7-119.776-104.659-137.8V280.218
			c0-142.453-113.38-259.902-255.83-259.902h-58.141c-142.454,0-261.647,116.868-261.647,259.902v100.588
			c-58.143,18.023-98.845,73.261-98.845,137.801v318.627C110.438,916.889,174.978,979.684,254.634,979.684z M470.927,90.089h58.142
			c104.077,0,186.059,86.051,186.059,190.13v94.773H279.053v-94.773C279.053,176.14,366.852,90.089,470.927,90.089z
			 M819.788,835.488c0,41.279-33.143,74.422-74.425,74.422H254.634c-41.283,0-74.425-33.143-74.425-74.422V519.188
			c0-41.283,33.142-74.424,74.425-74.424h490.729c41.282,0,74.424,33.141,74.424,74.424L819.788,835.488L819.788,835.488z"/>
	</g>
</g>
</svg>
